name C:\Users\u0113767\Documents\WORK_KULeuven\MRI_model_creation\SEMLS_2\gait1\gait1_EMG.mot
datacolumns 17
datarows 16
range 4.15800000 4.17300000
endheader
                time	        Voltage.LREF	        Voltage.LVAL	        Voltage.LBIF	        Voltage.LMEH	        Voltage.LTIA	        Voltage.LGAS	        Voltage.LSOL	        Voltage.LGLU	        Voltage.RREF	        Voltage.RVAL	        Voltage.RBIF	        Voltage.RMEH	        Voltage.RTIA	        Voltage.RGAS	        Voltage.RSOL	        Voltage.RGLU	
          4.15800000	          0.00572901	          0.45752859	          0.53301607	          0.22152007	          0.16489446	          0.78959009	          0.74299358	          0.88253997	          0.73243660	          0.12603346	          0.23857013	          0.74515980	          0.99686416	          0.00347657	          0.00856423	          0.22396939	
          4.15900000	          0.00465541	          0.44858435	          0.52683346	          0.21463236	          0.16454837	          0.78579571	          0.73935535	          0.88391992	          0.74250537	          0.13042708	          0.23852105	          0.73018268	          0.99507750	          0.00365921	          0.00806077	          0.21842259	
          4.16000000	          0.00355587	          0.43959165	          0.52080854	          0.20784156	          0.16422271	          0.78194362	          0.73535922	          0.88525607	          0.75220884	          0.13490104	          0.23830451	          0.71524982	          0.99280698	          0.00385695	          0.00757985	          0.21280153	
          4.16100000	          0.00243301	          0.43056631	          0.51495533	          0.20117350	          0.16392382	          0.77802782	          0.73100888	          0.88652079	          0.76154503	          0.13944664	          0.23792574	          0.70040715	          0.99000357	          0.00406971	          0.00712444	          0.20711599	
          4.16200000	          0.00129063	          0.42153172	          0.50928742	          0.19465418	          0.16365870	          0.77404185	          0.72632018	          0.88768202	          0.77051941	          0.14405543	          0.23738840	          0.68570160	          0.98661908	          0.00429693	          0.00669821	          0.20137668	
          4.16300000	          0.00013277	          0.41251765	          0.50382054	          0.18830832	          0.16343418	          0.76998505	          0.72131586	          0.88870459	          0.77914259	          0.14871985	          0.23669482	          0.67118356	          0.98261136	          0.00453765	          0.00630523	          0.19559671	
          4.16400000	          0.00000000	          0.40355734	          0.49857239	          0.18215802	          0.16325489	          0.76586210	          0.71602487	          0.88955617	          0.78742373	          0.15343410	          0.23584623	          0.65690185	          0.97794736	          0.00479052	          0.00594974	          0.18979007	
          4.16500000	          0.00000000	          0.39468453	          0.49356111	          0.17622278	          0.16312249	          0.76167934	          0.71048395	          0.89021210	          0.79536594	          0.15819395	          0.23484464	          0.64289867	          0.97260255	          0.00505387	          0.00563608	          0.18396958	
          4.16600000	          0.00000000	          0.38593388	          0.48880334	          0.17052017	          0.16303649	          0.75744572	          0.70473338	          0.89065436	          0.80296512	          0.16299443	          0.23369448	          0.62920926	          0.96656213	          0.00532603	          0.00536832	          0.17814658	
          4.16700000	          0.00000000	          0.37734499	          0.48431187	          0.16506567	          0.16299487	          0.75317406	          0.69881054	          0.89086970	          0.81021371	          0.16782672	          0.23240236	          0.61586258	          0.95982334	          0.00560536	          0.00514986	          0.17233107	
          4.16800000	          0.00000000	          0.36896452	          0.48009440	          0.15987172	          0.16299456	          0.74887652	          0.69274931	          0.89085329	          0.81710978	          0.17267760	          0.23097740	          0.60288183	          0.95239642	          0.00589007	          0.00498311	          0.16653155	
          4.16900000	          0.00000000	          0.36084297	          0.47615359	          0.15494722	          0.16303163	          0.74455890	          0.68658335	          0.89061204	          0.82366297	          0.17753225	          0.22943351	          0.59028641	          0.94430362	          0.00617807	          0.00486949	          0.16075491	
          4.17000000	          0.00000000	          0.35302984	          0.47248789	          0.15029781	          0.16310072	          0.74021875	          0.68034749	          0.89016097	          0.82989115	          0.18237794	          0.22779038	          0.57809242	          0.93557494	          0.00646714	          0.00480950	          0.15500670	
          4.17100000	          0.00000000	          0.34557133	          0.46909295	          0.14592644	          0.16319469	          0.73584621	          0.67407874	          0.88951821	          0.83581763	          0.18720432	          0.22607182	          0.56631002	          0.92624857	          0.00675524	          0.00480274	          0.14929136	
          4.17200000	          0.00000000	          0.33851047	          0.46596311	          0.14183377	          0.16330492	          0.73142528	          0.66781783	          0.88870454	          0.84147673	          0.19200100	          0.22430248	          0.55494119	          0.91637994	          0.00704075	          0.00484800	          0.14361207	
          4.17300000	          0.00000000	          0.33188723	          0.46309067	          0.13801826	          0.16342150	          0.72693572	          0.66160735	          0.88774217	          0.84691645	          0.19675684	          0.22250522	          0.54398030	          0.90604279	          0.00732254	          0.00494348	          0.13797081	
